<svg width="1080" height="397" viewBox="0 0 1080 397" fill="none" xmlns="http://www.w3.org/2000/svg">
<path d="M0 204.74L25.725 215.31C51.45 226.678 102.75 246.622 154.5 226.08C205.725 204.74 257.25 140.92 308.25 119.58C360 99.038 411.75 118.982 462.75 98.4397C514.275 77.0999 565.5 13.2799 617.25 2.70974C668.55 -8.65819 720 35.218 771.75 66.5297C822.825 99.038 874.5 118.982 925.5 109.01C977.175 99.038 1028.25 55.1618 1054.5 34.6197L1080 13.2799V396.2H1054.27C1028.55 396.2 977.25 396.2 925.5 396.2C874.275 396.2 822.75 396.2 771.75 396.2C720 396.2 668.25 396.2 617.25 396.2C565.725 396.2 514.5 396.2 462.75 396.2C411.45 396.2 360 396.2 308.25 396.2C257.175 396.2 205.5 396.2 154.5 396.2C102.825 396.2 51.75 396.2 25.5 396.2H0L0 204.74Z" fill="#535353"/>
</svg>
